<svg width="68" height="37" viewBox="0 0 68 37" fill="none" xmlns="http://www.w3.org/2000/svg">
<path d="M55.1032 34.8257C53.5727 37.5382 49.6662 37.5382 48.1358 34.8257L36.3659 13.9656C34.8614 11.2992 36.788 8.00003 39.8496 8.00003H63.3894C66.451 8.00003 68.3776 11.2992 66.8731 13.9656L55.1032 34.8257Z" fill="#5770D8"/>
<path d="M13.2113 10.1743C14.7418 7.4618 18.6483 7.46181 20.1787 10.1743L31.9486 31.0344C33.4531 33.7009 31.5265 37 28.4649 37H4.92515C1.86352 37 -0.0630664 33.7009 1.44143 31.0344L13.2113 10.1743Z" fill="#5770D8" fill-opacity="0.33"/>
<path d="M43.0145 28.1677C43.0755 31.2463 39.781 33.2365 37.0843 31.75L16.4617 20.3825C13.7651 18.8961 13.6888 15.0479 16.3244 13.4557L36.4803 1.27973C39.1159 -0.312428 42.4867 1.54563 42.5477 4.62422L43.0145 28.1677Z" fill="#5770D8" fill-opacity="0.71"/>
</svg>
