<svg width="69" height="39" viewBox="0 0 69 39" fill="none" xmlns="http://www.w3.org/2000/svg">
<path d="M64.8685 10.8274C67.9814 10.9278 69.7904 14.3902 68.0949 17.0028L55.0564 37.0943C53.3897 39.6625 49.5734 39.4826 48.1557 36.769L37.2552 15.9052C35.8375 13.1916 37.8695 9.95634 40.9295 10.0551L64.8685 10.8274Z" fill="#5770D8"/>
<path d="M32.2499 30.5154C33.8337 33.1971 31.8805 36.5802 28.7661 36.5494L4.81585 36.3123C1.75437 36.282 -0.139476 32.964 1.39134 30.3125L13.1612 9.92655C14.692 7.2751 18.5124 7.2562 20.0694 9.89237L32.2499 30.5154Z" fill="#5770D8" fill-opacity="0.33"/>
<path d="M46.0145 28.1677C46.0755 31.2463 42.781 33.2365 40.0843 31.75L19.4617 20.3825C16.7651 18.8961 16.6888 15.0479 19.3244 13.4557L39.4803 1.27973C42.1159 -0.312428 45.4867 1.54563 45.5477 4.62422L46.0145 28.1677Z" fill="#5770D8" fill-opacity="0.71"/>
</svg>
